<svg xmlns="http://www.w3.org/2000/svg" width="157" height="31"><g fill="none" fill-rule="evenodd"><path fill="#F90" d="M63.259 24.001c-5.904 4.388-14.461 6.729-21.828 6.729-10.33 0-19.63-3.853-26.666-10.26-.553-.504-.058-1.191.606-.799 7.593 4.455 16.981 7.135 26.679 7.135 6.54 0 13.735-1.365 20.35-4.196 1-.428 1.836.66.859 1.391"/><path fill="#F90" d="M65.451 21.128c-.748-.974-4.964-.46-6.856-.232-.577.071-.665-.438-.145-.804 3.357-2.4 8.867-1.707 9.51-.903.642.809-.168 6.416-3.323 9.092-.484.412-.946.193-.73-.353.708-1.796 2.296-5.821 1.544-6.8"/><path fill="#221F1F" d="M59.248 2.872V.58c0-.347.263-.58.578-.58H70.06a.57.57 0 01.59.58v1.963c-.004.33-.28.76-.77 1.44l-5.303 7.593c1.97-.048 4.05.246 5.837 1.256.403.228.513.562.543.892v2.446c0 .333-.368.724-.753.522-3.148-1.655-7.33-1.835-10.812.018-.354.193-.727-.193-.727-.527V13.86c0-.374.005-1.01.377-1.577l6.144-8.836h-5.347c-.328 0-.591-.232-.591-.575M21.036 17.879h-3.153a.6.6 0 01-.563-.544V.935c0-.328.27-.589.608-.589h2.94a.598.598 0 01.571.548v2.144h.058C22.264.966 23.704 0 25.647 0c1.972 0 3.205.966 4.091 3.038C30.501.966 32.234 0 34.092 0c1.321 0 2.767.553 3.649 1.793.997 1.38.793 3.385.793 5.142l-.004 10.35a.6.6 0 01-.607.594h-3.148a.604.604 0 01-.568-.593V8.593c0-.692.062-2.418-.088-3.074-.235-1.1-.94-1.411-1.853-1.411-.763 0-1.561.517-1.885 1.344-.323.827-.292 2.211-.292 3.141v8.693a.6.6 0 01-.608.593h-3.147a.6.6 0 01-.568-.593l-.004-8.693c0-1.829.297-4.521-1.942-4.521-2.266 0-2.177 2.625-2.177 4.521v8.693a.6.6 0 01-.607.593M79.838 0c4.75 0 7.322 3.996 7.322 9.076 0 4.909-2.841 8.803-7.322 8.803-4.665 0-7.205-3.996-7.205-8.975 0-5.01 2.572-8.904 7.205-8.904m.027 3.286c-2.36 0-2.508 3.149-2.508 5.111 0 1.967-.031 6.166 2.481 6.166 2.481 0 2.598-3.388 2.598-5.452 0-1.358-.058-2.98-.477-4.269-.36-1.12-1.076-1.556-2.094-1.556m12.654 14.593h-3.115a.602.602 0 01-.563-.593L88.836.88a.596.596 0 01.603-.535h2.9a.602.602 0 01.558.459v2.507h.057C93.83 1.07 95.057 0 97.217 0c1.403 0 2.772.517 3.652 1.933.818 1.312.818 3.519.818 5.105v10.324a.605.605 0 01-.603.517h-3.137a.598.598 0 01-.554-.517V8.454c0-1.793.202-4.418-1.958-4.418-.76 0-1.46.521-1.808 1.312-.44 1.003-.497 2-.497 3.106v8.832a.607.607 0 01-.611.593m11.403-1.958c0-.773.752-1.394 1.676-1.394.924 0 1.676.621 1.676 1.394 0 .77-.752 1.4-1.676 1.4-.924 0-1.676-.63-1.676-1.4m33.542 1.958a.592.592 0 01-.578-.59V.983a.582.582 0 01.556-.536h1.143a.59.59 0 01.596.536V3.36c.814-1.885 2.33-3.36 4.243-3.36h.232c2.032 0 3.517 1.528 4.069 3.75.862-2.195 2.483-3.75 4.62-3.75h.236c1.511 0 2.965.992 3.718 2.502.727 1.444.7 3.365.7 4.978l-.003 9.81a.591.591 0 01-.557.589h-1.366a.602.602 0 01-.578-.51V7.48c0-1.166.057-2.404-.407-3.467-.473-1.086-1.38-1.765-2.352-1.814-1.086.053-2.084.862-2.733 1.952-.84 1.408-.81 2.677-.81 4.322v8.906a.603.603 0 01-.556.5h-1.357a.596.596 0 01-.583-.59l-.009-10.46c0-.962-.057-2.092-.49-2.955-.504-.983-1.406-1.626-2.352-1.675-.98.058-1.97.822-2.557 1.711-.758 1.135-.902 2.538-.902 3.982v9.397c0 .313-.25.568-.56.59h-1.363m-9.864 0c-4.39 0-6.358-4.513-6.358-9.025 0-4.745 2.311-8.854 6.733-8.854h.235c4.3 0 6.441 4.377 6.441 8.89 0 4.78-2.372 8.989-6.82 8.989h-.23m.322-2.188c1.445-.049 2.585-.952 3.26-2.456.604-1.35.722-2.899.722-4.381 0-1.614-.174-3.298-.927-4.68-.675-1.205-1.832-1.973-3.06-2.016-1.366.048-2.59.982-3.203 2.42-.553 1.246-.722 2.899-.722 4.276 0 1.548.2 3.337.835 4.684.618 1.276 1.806 2.104 3.095 2.153m-14.286-.071c1.99-.06 3.036-1.653 3.466-3.714.088-.259.286-.456.576-.456l1.314-.004c.312.013.598.25.571.54-.606 3.512-2.729 5.893-5.752 5.893h-.237c-4.403 0-6.301-4.412-6.301-8.89 0-4.441 1.925-8.989 6.327-8.989h.238c3.058 0 5.237 2.35 5.712 5.863 0 .263-.246.491-.536.522l-1.375-.017c-.29-.04-.48-.286-.523-.562-.33-1.96-1.46-3.521-3.34-3.583-2.992.097-3.845 3.772-3.845 6.6 0 2.724.712 6.701 3.705 6.798M50.645 9.989c0 1.219.032 2.235-.59 3.318-.502.88-1.3 1.421-2.184 1.421-1.212 0-1.922-.915-1.922-2.266 0-2.667 2.41-3.15 4.696-3.15v.677m3.183 7.626a.664.664 0 01-.745.075c-1.048-.863-1.239-1.263-1.812-2.086-1.73 1.751-2.96 2.275-5.202 2.275-2.66 0-4.724-1.624-4.724-4.876 0-2.539 1.385-4.268 3.365-5.113 1.714-.748 4.106-.88 5.935-1.087v-.405c0-.743.058-1.624-.386-2.266-.382-.576-1.118-.814-1.771-.814-1.203 0-2.273.612-2.535 1.879-.053.282-.262.559-.55.572l-3.059-.326c-.257-.057-.546-.264-.47-.655C42.573 1.108 45.93 0 48.931 0c1.536 0 3.542.405 4.754 1.558 1.536 1.421 1.39 3.318 1.39 5.382v4.875c0 1.466.612 2.108 1.19 2.9.2.282.244.62-.014.832-.643.532-1.789 1.522-2.42 2.077l-.004-.009M9.298 9.989c0 1.219.03 2.235-.59 3.318-.502.88-1.296 1.421-2.184 1.421-1.212 0-1.917-.915-1.917-2.266 0-2.667 2.41-3.15 4.69-3.15v.677m3.183 7.626a.663.663 0 01-.746.075c-1.047-.863-1.233-1.263-1.81-2.086-1.731 1.751-2.956 2.275-5.202 2.275C2.068 17.879 0 16.255 0 13.003c0-2.539 1.39-4.268 3.364-5.113 1.713-.748 4.105-.88 5.934-1.087v-.405c0-.743.058-1.624-.382-2.266-.386-.576-1.123-.814-1.77-.814-1.203 0-2.277.612-2.54 1.879-.052.282-.261.559-.545.572L.999 5.443C.74 5.386.457 5.18.529 4.788 1.233 1.108 4.584 0 7.584 0c1.535 0 3.541.405 4.753 1.558 1.536 1.421 1.39 3.318 1.39 5.382v4.875c0 1.466.612 2.108 1.189 2.9.204.282.248.62-.01.832-.643.532-1.788 1.522-2.418 2.077l-.009-.009"/></g></svg>